# xmcd
#
# Track frame offsets:
#	183
#	11358
#	24280
#	36373
#	46313
#	56880
#	67953
#	77890
#	88683
#	101130
#	116880
#	126195
#	138865
#	147880
#	158660
#	169778
#	181133
#	190568
#	196095
#	207660
#	217650
#	230120
#	241910
#	254290
#
# Disc length: 3571
#
# Revision: 1
# Processed by: cddbd v1.5.1PL0 Copyright (c) Steve Scherf et al.
# Submitted via: audiograbber 1.81.03
# Normalized: r0:DSETVAR1
#
DISCID=4a0df118
DTITLE=Various Artist - Country Stars vol 2
DYEAR=1900
DGENRE=Country
TTITLE0=Johnny Cash - Mean eyed cat
TTITLE1=Donna Fargo - Daddy
TTITLE2=Willie Nelson - I can't find the time
TTITLE3=Conway Twitty - Where I stand
TTITLE4=Patsy Cline - Gotta lot of rhythm
TTITLE5=George Jones - Once a day
TTITLE6=Dolly Parton - Hey Porter
TTITLE7=Dolly Parton - Honky Tonk angels
TTITLE8=Stonewall Jackson - Muddy Water
TTITLE9=Ray Pillow - How do I hide from a memory
TTITLE10=Faron Young - I'll be there
TTITLE11=Johnny Paycheck - The happy hours
TTITLE12=Johnny Cash - Two timin' woman
TTITLE13=Donna Fargo - Wishful thinking
TTITLE14=Willie Nelson - Suffering in silence
TTITLE15=Conway Twitty - Turn the other cheek
TTITLE16=Patsy Cline - I'm moving along
TTITLE17=George Jones - Liberty
TTITLE18=Dolly Parton - Letter to heaven
TTITLE19=Stonewall Jackson - Showboat
TTITLE20=Ray Pillow - The day of you and me
TTITLE21=Faron Young - Is she all you throught
TTITLE22=Johnny Paycheck - Jeanny in a boottle
TTITLE23=Willie Nelson - Home is where you're happy
EXTD=
EXTT0=
EXTT1=
EXTT2=
EXTT3=
EXTT4=
EXTT5=
EXTT6=
EXTT7=
EXTT8=
EXTT9=
EXTT10=
EXTT11=
EXTT12=
EXTT13=
EXTT14=
EXTT15=
EXTT16=
EXTT17=
EXTT18=
EXTT19=
EXTT20=
EXTT21=
EXTT22=
EXTT23=
PLAYORDER=
